<?xml version="1.0" encoding="UTF-8"?>
<svg width="20px" height="30px" enable-background="new 0 0 60.123 60.123" version="1.1" viewBox="0 0 60.123 60.123" xml:space="preserve" xmlns="http://www.w3.org/2000/svg">
<g fill="#ff9800">
	<path d="m57.124 51.893h-40.204c-1.657 0-3-1.343-3-3s1.343-3 3-3h40.203c1.657 0 3 1.343 3 3s-1.342 3-2.999 3z"/>
	<path d="m57.124 33.062h-40.204c-1.657 0-3-1.343-3-3s1.343-3 3-3h40.203c1.657 0 3 1.343 3 3 1e-3 1.657-1.342 3-2.999 3z"/>
	<path d="m57.124 14.231h-40.204c-1.657 0-3-1.343-3-3s1.343-3 3-3h40.203c1.657 0 3 1.343 3 3s-1.342 3-2.999 3z"/>
	<circle cx="4.029" cy="11.463" r="4.029"/>
	<circle cx="4.029" cy="30.062" r="4.029"/>
	<circle cx="4.029" cy="48.661" r="4.029"/>
</g>
</svg>
