<svg height="40px" viewBox="0 0 512.001 512" width="512pt" xmlns="http://www.w3.org/2000/svg"><path d="m141.652344 465.097656c-2.480469-3.070312-3.796875-7.292968-3.160156-12.683594 5.152343-43.769531 16.089843-82.488281 37.152343-118.433593-11.023437 5.765625-22.101562 11.441406-33.703125 16.085937-25.625 10.257813-56.488281 9.320313-79.492187 25.148438-8.199219 5.640625-16.144531 3.859375-21.628907-1.226563-4.828124-1.667969-8.234374-5.03125-10.230468-9.191406l-30.58593775 12.660156c25.17578175 60.769531 73.76953175 109.363281 134.53906275 134.542969l14.769531-35.691406c-3.980469-2.640625-6.523438-6.691406-7.660156-11.210938zm0 0" fill="#dc691d"/><path d="m148.078125 479.308594 81.441406-196.828125-200.535156 82.980469c26.03125 49.839843 67.953125 90.03125 119.09375 113.847656zm0 0" fill="#f7e6a1"/><path d="m167.726562 348.6875c0-13.539062-5.550781-25.765625-14.496093-34.578125l-82.589844 34.171875c0 .140625-.015625.273438-.015625.40625 0 26.820312 21.730469 48.550781 48.550781 48.550781 26.816407 0 48.550781-21.730469 48.550781-48.550781zm0 0" fill="#dc691d"/><path d="m223.957031 1.949219c-114.316406 13.878906-206.335937 105.003906-221.613281 219.144531-5.6875 42.445312-.796875 83.121094 12.199219 119.984375l34.578125-14.457031c-1.042969-7.609375 1.789062-15.777344 8.429687-20.023438 1.296875-1.367187 2.816407-2.648437 4.703125-3.75 40.582032-23.464844 84.445313-34.21875 128.265625-49.585937 27.992188-9.816407 60.8125-31.945313 88.753907-11.105469 10.265624 7.664062 10.203124 20.234375 5.023437 28.832031 1.5 3.601563 1.695313 7.933594-.308594 12.90625-9.976562 24.761719-22.476562 47.757813-35.601562 70.957031-12.863281 22.746094-33.441407 50.03125-37.84375 76.664063 11.09375 10.664063 6.742187 34.683594-13.164063 34.683594-4.261718 0-7.75-1.171875-10.59375-3.007813l-14.328125 34.78125c36.761719 12.683594 77.253907 17.371094 119.492188 11.527344 113.910156-15.765625 204.605469-107.933594 218.183593-222.128906 19.753907-166.207032-119.886718-305.601563-286.175781-285.421875zm0 0" fill="#dc691d"/><path d="m239.867188 35.882812c-102.976563 7.316407-188.480469 87.277344-202.460938 189.5625-4.875 35.671876-.820312 70.867188 9.675781 102.011719l200.835938-84.1875c13.109375-5.421875 26.226562 7.695313 20.804687 20.804688l-82.785156 201.183593c31.136719 10.484376 64.917969 14.203126 100.582031 9.339844 102.277344-13.96875 182.246094-99.445312 189.597657-202.410156 9.605468-134.609375-101.628907-245.875-236.25-236.304688zm0 0" fill="#f7e6a1"/><path d="m229.519531 220.6875c-2.257812 0-4.519531-.863281-6.242187-2.585938-3.449219-3.453124-3.449219-9.03125 0-12.480468l17.65625-17.65625c3.445312-3.453125 9.039062-3.453125 12.484375 0 3.449219 3.449218 3.449219 9.03125 0 12.480468l-17.65625 17.65625c-1.722657 1.722657-3.980469 2.585938-6.242188 2.585938zm0 0" fill="#23a24d"/><path d="m397.246094 194.207031c-2.261719 0-4.519532-.867187-6.242188-2.589843-3.453125-3.449219-3.453125-9.027344 0-12.480469l17.65625-17.65625c3.449219-3.449219 9.027344-3.449219 12.480469 0 3.453125 3.453125 3.453125 9.03125 0 12.484375l-17.65625 17.652344c-1.71875 1.722656-3.980469 2.589843-6.238281 2.589843zm0 0" fill="#ebba16"/><path d="m300.140625 300.136719c-2.257813 0-4.519531-.867188-6.242187-2.585938-3.449219-3.453125-3.449219-9.03125 0-12.484375l17.65625-17.652344c3.453124-3.453124 9.03125-3.453124 12.484374 0 3.449219 3.449219 3.449219 9.027344 0 12.480469l-17.65625 17.65625c-1.722656 1.71875-3.980468 2.585938-6.242187 2.585938zm0 0" fill="#dd352e"/><path d="m70.625 282.480469c-2.261719 0-4.519531-.863281-6.242188-2.585938-3.453124-3.453125-3.453124-9.03125 0-12.480469l17.65625-17.65625c3.441407-3.453124 9.039063-3.453124 12.480469 0 3.453125 3.453126 3.453125 9.03125 0 12.480469l-17.65625 17.65625c-1.71875 1.722657-3.980469 2.585938-6.238281 2.585938zm0 0" fill="#dd352e"/><path d="m388.417969 379.585938c-2.261719 0-4.519531-.867188-6.242188-2.585938-3.453125-3.453125-3.453125-9.03125 0-12.484375l17.65625-17.65625c3.449219-3.449219 9.03125-3.449219 12.480469 0 3.453125 3.453125 3.453125 9.03125 0 12.484375l-17.65625 17.65625c-1.71875 1.71875-3.980469 2.585938-6.238281 2.585938zm0 0" fill="#23a24d"/><path d="m194.210938 114.757812c-2.261719 0-4.519532-.867187-6.242188-2.585937-3.453125-3.453125-3.453125-9.03125 0-12.484375l17.65625-17.652344c3.441406-3.453125 9.039062-3.453125 12.480469 0 3.453125 3.449219 3.453125 9.027344 0 12.480469l-17.65625 17.65625c-1.71875 1.71875-3.980469 2.585937-6.238281 2.585937zm0 0" fill="#ebba16"/><path d="m185.382812 180.964844c0 26.8125-21.738281 48.550781-48.550781 48.550781-26.816406 0-48.554687-21.738281-48.554687-48.550781 0-26.816406 21.738281-48.550782 48.554687-48.550782 26.8125 0 48.550781 21.734376 48.550781 48.550782zm0 0" fill="#dc691d"/><path d="m151.589844 203.015625c-3.628906 0-7.027344-2.25-8.316406-5.851563-1.339844-3.789062-2.027344-7.742187-2.027344-11.785156 0-8.742187 3.21875-17.109375 9.082031-23.578125 3.273437-3.621093 8.855469-3.894531 12.472656-.621093 3.621094 3.277343 3.886719 8.855468.617188 12.464843-2.910157 3.214844-4.519531 7.382813-4.519531 11.734375 0 2.011719.335937 3.972656 1.007812 5.832032 1.640625 4.601562-.75 9.652343-5.339844 11.285156-.988281.351562-1.988281.519531-2.976562.519531zm0 0" fill="#a84c1a"/><path d="m114.761719 176.550781c-4.871094 0-8.828125-3.945312-8.828125-8.828125 0-4.882812 3.957031-8.828125 8.828125-8.828125 4.203125 0 8.070312-1.933593 10.59375-5.304687 2.929687-3.902344 8.457031-4.671875 12.359375-1.757813 3.902344 2.933594 4.6875 8.464844 1.753906 12.359375-5.796875 7.742188-15.039062 12.359375-24.707031 12.359375zm0 0" fill="#a84c1a"/><path d="m132.425781 211.859375c-2.683593 0-5.332031-1.21875-7.070312-3.519531-2.523438-3.375-6.390625-5.308594-10.59375-5.308594-4.871094 0-8.828125-3.945312-8.828125-8.824219 0-4.882812 3.957031-8.828125 8.828125-8.828125 9.667969 0 18.910156 4.617188 24.71875 12.347656 2.929687 3.894532 2.136719 9.429688-1.757813 12.359376-1.597656 1.199218-3.453125 1.773437-5.296875 1.773437zm0 0" fill="#a84c1a"/><path d="m353.105469 388.414062c0 26.8125-21.734375 48.550782-48.550781 48.550782-26.8125 0-48.550782-21.738282-48.550782-48.550782 0-26.816406 21.738282-48.554687 48.550782-48.554687 26.816406 0 48.550781 21.738281 48.550781 48.554687zm0 0" fill="#dc691d"/><g fill="#a84c1a"><path d="m319.316406 410.464844c-3.628906 0-7.019531-2.253906-8.316406-5.855469-1.34375-3.777344-2.03125-7.742187-2.03125-11.785156 0-8.738281 3.230469-17.113281 9.09375-23.585938 3.273438-3.609375 8.84375-3.867187 12.472656-.609375 3.609375 3.277344 3.882813 8.863282.609375 12.472656-2.914062 3.207032-4.519531 7.371094-4.519531 11.722657 0 2.023437.335938 3.972656 1.003906 5.835937 1.644532 4.601563-.75 9.648438-5.339844 11.28125-.988281.355469-1.984374.523438-2.972656.523438zm0 0"/><path d="m282.484375 384c-4.871094 0-8.824219-3.949219-8.824219-8.828125 0-4.882813 3.953125-8.828125 8.824219-8.828125 4.210937 0 8.070313-1.933594 10.59375-5.304688 2.929687-3.894531 8.457031-4.679687 12.359375-1.757812 3.894531 2.929688 4.6875 8.464844 1.757812 12.359375-5.800781 7.742187-15.042968 12.359375-24.710937 12.359375zm0 0"/><path d="m300.148438 419.308594c-2.683594 0-5.332032-1.21875-7.070313-3.523438-2.523437-3.371094-6.382813-5.304687-10.59375-5.304687-4.871094 0-8.824219-3.945313-8.824219-8.828125 0-4.878906 3.953125-8.828125 8.824219-8.828125 9.667969 0 18.910156 4.617187 24.71875 12.351562 2.929687 3.894531 2.136719 9.429688-1.757813 12.359375-1.597656 1.199219-3.449218 1.773438-5.296874 1.773438zm0 0"/><path d="m133.933594 370.738281c-3.625 0-7.023438-2.25-8.3125-5.851562-1.34375-3.785157-2.03125-7.742188-2.03125-11.785157 0-8.738281 3.222656-17.109374 9.082031-23.578124 3.277344-3.621094 8.863281-3.894532 12.472656-.617188 3.613281 3.273438 3.886719 8.851562.621094 12.464844-2.914063 3.210937-4.519531 7.378906-4.519531 11.730468 0 2.011719.332031 3.972657 1.003906 5.835938 1.644531 4.597656-.75 9.648438-5.339844 11.28125-.988281.351562-1.984375.519531-2.976562.519531zm0 0"/></g><path d="m450.210938 269.238281c0 26.816407-21.738282 48.554688-48.550782 48.554688-26.816406 0-48.554687-21.738281-48.554687-48.554688 0-26.8125 21.738281-48.550781 48.554687-48.550781 26.8125 0 48.550782 21.738281 48.550782 48.550781zm0 0" fill="#dc691d"/><path d="m416.417969 291.292969c-3.628907 0-7.019531-2.253907-8.316407-5.855469-1.339843-3.777344-2.03125-7.742188-2.03125-11.785156 0-8.738282 3.234376-17.117188 9.09375-23.585938 3.277344-3.609375 8.84375-3.867187 12.472657-.609375 3.613281 3.273438 3.886719 8.863281.609375 12.472657-2.914063 3.207031-4.519532 7.371093-4.519532 11.722656 0 2.023437.335938 3.972656 1.007813 5.835937 1.640625 4.597657-.75 9.648438-5.339844 11.28125-.992187.355469-1.988281.523438-2.976562.523438zm0 0" fill="#a84c1a"/><path d="m379.589844 264.824219c-4.875 0-8.828125-3.945313-8.828125-8.824219 0-4.882812 3.953125-8.828125 8.828125-8.828125 4.210937 0 8.066406-1.933594 10.59375-5.304687 2.929687-3.894532 8.457031-4.671876 12.359375-1.757813 3.890625 2.929687 4.683593 8.464844 1.753906 12.359375-5.800781 7.742188-15.042969 12.355469-24.707031 12.355469zm0 0" fill="#a84c1a"/><path d="m397.253906 300.136719c-2.683594 0-5.332031-1.21875-7.070312-3.523438-2.527344-3.371093-6.382813-5.304687-10.59375-5.304687-4.875 0-8.828125-3.945313-8.828125-8.828125 0-4.878907 3.953125-8.828125 8.828125-8.828125 9.664062 0 18.90625 4.617187 24.714844 12.351562 2.933593 3.890625 2.136718 9.425782-1.753907 12.359375-1.597656 1.199219-3.453125 1.773438-5.296875 1.773438zm0 0" fill="#a84c1a"/><path d="m361.933594 136.824219c0 26.816406-21.738282 48.554687-48.550782 48.554687-26.816406 0-48.550781-21.738281-48.550781-48.554687 0-26.8125 21.734375-48.550781 48.550781-48.550781 26.8125 0 48.550782 21.738281 48.550782 48.550781zm0 0" fill="#dc691d"/><path d="m328.140625 158.878906c-3.625 0-7.015625-2.253906-8.3125-5.855468-1.34375-3.777344-2.03125-7.742188-2.03125-11.785157 0-8.738281 3.230469-17.113281 9.089844-23.585937 3.277343-3.609375 8.847656-3.875 12.476562-.609375 3.609375 3.277343 3.882813 8.863281.609375 12.472656-2.914062 3.207031-4.519531 7.371094-4.519531 11.722656 0 2.023438.332031 3.972657 1.003906 5.835938 1.644531 4.601562-.75 9.648437-5.339843 11.28125-.988282.355469-1.988282.523437-2.976563.523437zm0 0" fill="#a84c1a"/><path d="m291.3125 132.414062c-4.871094 0-8.828125-3.949218-8.828125-8.828124 0-4.882813 3.957031-8.828126 8.828125-8.828126 4.210938 0 8.070312-1.933593 10.59375-5.304687 2.929688-3.894531 8.457031-4.671875 12.359375-1.757813 3.890625 2.929688 4.6875 8.464844 1.757813 12.359376-5.800782 7.742187-15.042969 12.359374-24.710938 12.359374zm0 0" fill="#a84c1a"/><path d="m308.976562 167.722656c-2.683593 0-5.332031-1.21875-7.070312-3.523437-2.523438-3.371094-6.382812-5.304688-10.59375-5.304688-4.871094 0-8.828125-3.945312-8.828125-8.828125 0-4.878906 3.957031-8.828125 8.828125-8.828125 9.667969 0 18.910156 4.617188 24.71875 12.351563 2.929688 3.894531 2.136719 9.425781-1.757812 12.359375-1.597657 1.199219-3.449219 1.773437-5.296876 1.773437zm0 0" fill="#a84c1a"/></svg>
